# xmcd CD database file
#
# Track frame offsets:
#	150
#	32754
#	56190
#	78586
#	108594
#	132070
#	172886
#	207378
#	238330
#
# Disc length: 4033 seconds
#
# Revision: 0
# Processed by: cddbd v1.5.2PL0 Copyright (c) Steve Scherf et al.
# Submitted via: CDex 1.70beta2
#
DISCID=7d0fbf09
DTITLE=Hey Rim Jeon - Alone
DYEAR=2007
DGENRE=Jazz
TTITLE0=Into the Cave_Softly As in a Morning Sunrise
TTITLE1=Taste of Your Tears
TTITLE2=Spain
TTITLE3=Winter Sonata
TTITLE4=Prague
TTITLE5=over the Rainbow
TTITLE6=Mona Lisa Puzzle
TTITLE7=Alpha and Omega
TTITLE8=Improvisation
EXTD=YEAR: 2007
EXTT0=
EXTT1=
EXTT2=
EXTT3=
EXTT4=
EXTT5=
EXTT6=
EXTT7=
EXTT8=
PLAYORDER=
